<svg width="33" height="33" viewBox="0 0 33 33" fill="none" xmlns="http://www.w3.org/2000/svg">
<path fill-rule="evenodd" clip-rule="evenodd" d="M2.75284 10.443C2 11.8184 2 13.4775 2 16.7957V19.0013C2 24.6574 2 27.4856 3.69878 29.2427C5.39757 31 8.1317 31 13.6 31H19.4C24.8682 31 27.6025 31 29.3012 29.2427C31 27.4856 31 24.6574 31 19.0013V16.7957C31 13.4775 31 11.8184 30.2472 10.443C29.4943 9.0676 28.119 8.21399 25.3682 6.50677L22.4682 4.70696C19.5604 2.90232 18.1065 2 16.5 2C14.8935 2 13.4396 2.90232 10.5318 4.70696L7.63184 6.50679C4.88108 8.21399 3.50568 9.0676 2.75284 10.443ZM12.7976 21.4264C12.3151 21.0687 11.634 21.1699 11.2763 21.6524C10.9187 22.135 11.0199 22.8161 11.5024 23.1736C12.9124 24.2188 14.6368 24.8375 16.5 24.8375C18.3633 24.8375 20.0876 24.2188 21.4976 23.1736C21.9801 22.8161 22.0813 22.135 21.7236 21.6524C21.3661 21.1699 20.685 21.0687 20.2024 21.4264C19.1463 22.2091 17.8716 22.6625 16.5 22.6625C15.1284 22.6625 13.8538 22.2091 12.7976 21.4264Z" fill="#85A4E1"/>
</svg>
