<svg width="20" height="20" viewBox="0 0 20 20" fill="none" xmlns="http://www.w3.org/2000/svg">
<path d="M15.9084 10.4917C15.7751 10.4917 15.6418 10.45 15.5251 10.3583C12.1668 7.76667 7.82511 7.76667 4.46677 10.3583C4.19177 10.5667 3.80011 10.5167 3.59177 10.25C3.38344 9.975 3.43344 9.58333 3.70011 9.375C7.52511 6.41667 12.4668 6.41667 16.2834 9.375C16.5584 9.58333 16.6084 9.975 16.3918 10.25C16.2834 10.4083 16.1001 10.4917 15.9084 10.4917Z" fill="#101010"/>
<path d="M18.3333 7.59167C18.2 7.59167 18.0667 7.55 17.95 7.45833C13.1167 3.725 6.87501 3.725 2.05001 7.45833C1.77501 7.66667 1.38334 7.61667 1.17501 7.35C0.958339 7.08333 1.00834 6.68333 1.28334 6.475C6.57501 2.38333 13.4167 2.38333 18.7167 6.475C18.9917 6.68333 19.0417 7.075 18.825 7.35C18.7083 7.50833 18.5167 7.59167 18.3333 7.59167Z" fill="#101010"/>
<path d="M14.3417 13.5331C14.2084 13.5331 14.0751 13.4914 13.9584 13.3997C11.5584 11.5414 8.45006 11.5414 6.04172 13.3997C5.76672 13.6081 5.37506 13.5581 5.16672 13.2914C4.95839 13.0164 5.00839 12.6247 5.27506 12.4164C8.14172 10.1997 11.8501 10.1997 14.7167 12.4164C14.9917 12.6247 15.0417 13.0164 14.8251 13.2914C14.7084 13.4497 14.5251 13.5331 14.3417 13.5331Z" fill="#101010"/>
<path d="M12.1666 16.5831C12.0332 16.5831 11.8999 16.5414 11.7832 16.4497C10.6999 15.6081 9.29156 15.6081 8.20823 16.4497C7.93323 16.6581 7.54156 16.6081 7.33323 16.3414C7.12489 16.0664 7.17489 15.6747 7.44156 15.4664C8.99156 14.2664 10.9916 14.2664 12.5416 15.4664C12.8166 15.6747 12.8666 16.0664 12.6499 16.3414C12.5416 16.4914 12.3582 16.5831 12.1666 16.5831Z" fill="#101010"/>
</svg>
