<svg width="16" height="16" viewBox="0 0 16 16" fill="none" xmlns="http://www.w3.org/2000/svg">
<g clip-path="url(#clip0_4398_966)">
<path d="M11.3334 14V12.6667C11.3334 11.9594 11.0524 11.2811 10.5523 10.781C10.0522 10.281 9.37393 10 8.66669 10H3.33335C2.62611 10 1.94783 10.281 1.44774 10.781C0.947639 11.2811 0.666687 11.9594 0.666687 12.6667V14M15.3334 14V12.6667C15.3329 12.0758 15.1363 11.5018 14.7743 11.0349C14.4123 10.5679 13.9054 10.2344 13.3334 10.0867M10.6667 2.08667C11.2403 2.23353 11.7487 2.56713 12.1118 3.03487C12.4748 3.50261 12.6719 4.07789 12.6719 4.67C12.6719 5.26211 12.4748 5.83739 12.1118 6.30513C11.7487 6.77287 11.2403 7.10647 10.6667 7.25333M8.66669 4.66667C8.66669 6.13943 7.47278 7.33333 6.00002 7.33333C4.52726 7.33333 3.33335 6.13943 3.33335 4.66667C3.33335 3.19391 4.52726 2 6.00002 2C7.47278 2 8.66669 3.19391 8.66669 4.66667Z" stroke="#7B818E" stroke-width="1.5" stroke-linecap="round" stroke-linejoin="round"/>
</g>
<defs>
<clipPath id="clip0_4398_966">
<rect width="16" height="16" fill="white"/>
</clipPath>
</defs>
</svg>
