<svg width="25" height="25" viewBox="0 0 25 25" fill="none" xmlns="http://www.w3.org/2000/svg">
<path d="M13.2814 21.5206L19.723 14.1268C22.5116 11.1226 22.3886 7.34973 20.5084 5.0591C19.573 3.91848 18.2105 3.16744 16.6334 3.12681C15.2866 3.09139 13.8709 3.57473 12.5053 4.62889C11.1355 3.57473 9.71573 3.09139 8.36677 3.12681C6.78865 3.16848 5.42407 3.91848 4.48761 5.0591C2.60636 7.35181 2.49282 11.1247 5.29177 14.1279L11.7324 21.5206C11.9303 21.7456 12.2116 21.8747 12.5064 21.8747C12.6532 21.8745 12.7983 21.8428 12.9318 21.7817C13.0653 21.7206 13.1842 21.6315 13.2803 21.5206H13.2814Z" fill="#454545"/>
</svg>
