<svg width="25" height="25" viewBox="0 0 25 25" fill="none" xmlns="http://www.w3.org/2000/svg">
<path fill-rule="evenodd" clip-rule="evenodd" d="M11.7634 3.42999C11.9588 3.2347 12.2237 3.125 12.4999 3.125C12.7761 3.125 13.041 3.2347 13.2364 3.42999L19.4864 9.67999L21.5697 11.7633C21.7594 11.9598 21.8644 12.2229 21.8621 12.496C21.8597 12.7691 21.7501 13.0304 21.557 13.2235C21.3639 13.4167 21.1026 13.5262 20.8295 13.5286C20.5564 13.531 20.2932 13.426 20.0968 13.2362L19.7916 12.931V19.7914C19.7916 20.344 19.5721 20.8739 19.1814 21.2646C18.7907 21.6553 18.2608 21.8748 17.7082 21.8748H14.5832C14.307 21.8748 14.042 21.765 13.8467 21.5697C13.6513 21.3743 13.5416 21.1094 13.5416 20.8331V17.7081H11.4582V20.8331C11.4582 21.1094 11.3485 21.3743 11.1531 21.5697C10.9578 21.765 10.6928 21.8748 10.4166 21.8748H7.29156C6.73903 21.8748 6.20912 21.6553 5.81842 21.2646C5.42772 20.8739 5.20823 20.344 5.20823 19.7914V12.931L4.90302 13.2362C4.70656 13.426 4.44343 13.531 4.17031 13.5286C3.89719 13.5262 3.63593 13.4167 3.44279 13.2235C3.24966 13.0304 3.14011 12.7691 3.13773 12.496C3.13536 12.2229 3.24036 11.9598 3.4301 11.7633L5.51344 9.67999L11.7634 3.42999Z" fill="#454545"/>
</svg>
