<svg width="21" height="21" viewBox="0 0 21 21" fill="none" xmlns="http://www.w3.org/2000/svg">
<path d="M14.875 1.75H6.125C3.70875 1.75 1.75 3.70875 1.75 6.125V14.875C1.75 17.2912 3.70875 19.25 6.125 19.25H14.875C17.2912 19.25 19.25 17.2912 19.25 14.875V6.125C19.25 3.70875 17.2912 1.75 14.875 1.75Z" stroke="#6B7280" stroke-opacity="0.76" stroke-width="1.5" stroke-linecap="round" stroke-linejoin="round"/>
<path d="M15.3125 5.6875H15.3212M14 9.94875C14.108 10.677 13.9836 11.4207 13.6445 12.0741C13.3055 12.7276 12.769 13.2575 12.1114 13.5885C11.4538 13.9194 10.7086 14.0346 9.9818 13.9177C9.25497 13.8007 8.58353 13.4576 8.06297 12.937C7.54242 12.4165 7.19925 11.745 7.0823 11.0182C6.96534 10.2914 7.08054 9.54616 7.41152 8.88858C7.7425 8.231 8.2724 7.69452 8.92585 7.35546C9.5793 7.0164 10.323 6.89201 11.0512 7C11.794 7.11015 12.4817 7.45628 13.0127 7.98727C13.5437 8.51826 13.8898 9.20594 14 9.94875Z" stroke="#6B7280" stroke-opacity="0.76" stroke-width="1.5" stroke-linecap="round" stroke-linejoin="round"/>
</svg>
