<svg width="21" height="21" viewBox="0 0 21 21" fill="none" xmlns="http://www.w3.org/2000/svg">
<path d="M14 7C15.3924 7 16.7277 7.55312 17.7123 8.53769C18.6969 9.52226 19.25 10.8576 19.25 12.25V18.375H15.75V12.25C15.75 11.7859 15.5656 11.3408 15.2374 11.0126C14.9092 10.6844 14.4641 10.5 14 10.5C13.5359 10.5 13.0908 10.6844 12.7626 11.0126C12.4344 11.3408 12.25 11.7859 12.25 12.25V18.375H8.75V12.25C8.75 10.8576 9.30312 9.52226 10.2877 8.53769C11.2723 7.55312 12.6076 7 14 7ZM1.75 7.875H5.25V18.375H1.75V7.875Z" stroke="#6B7280" stroke-opacity="0.76" stroke-width="1.5" stroke-linecap="round" stroke-linejoin="round"/>
<path d="M3.5 5.25C4.4665 5.25 5.25 4.4665 5.25 3.5C5.25 2.5335 4.4665 1.75 3.5 1.75C2.5335 1.75 1.75 2.5335 1.75 3.5C1.75 4.4665 2.5335 5.25 3.5 5.25Z" stroke="#6B7280" stroke-opacity="0.76" stroke-width="1.5" stroke-linecap="round" stroke-linejoin="round"/>
</svg>
