<svg width="25" height="25" viewBox="0 0 25 25" fill="none" xmlns="http://www.w3.org/2000/svg">
<path fill-rule="evenodd" clip-rule="evenodd" d="M12.4021 2.07681C13.5421 2.0627 14.6729 2.28262 15.7246 2.72296C16.7762 3.1633 17.7263 3.8147 18.5162 4.63688C19.3061 5.45906 19.9189 6.43453 20.3167 7.50298C20.7145 8.57143 20.889 9.71014 20.8292 10.8487C20.7508 12.3179 20.2846 13.74 19.4781 14.9706C19.4408 15.0468 19.3943 15.1182 19.3396 15.1831L19.2271 15.3174C19.0417 15.5706 18.8417 15.8143 18.6302 16.0456L13.3052 22.5289C13.2075 22.6478 13.0847 22.7435 12.9455 22.8093C12.8064 22.875 12.6544 22.9091 12.5005 22.9091C12.3466 22.9091 12.1947 22.875 12.0555 22.8093C11.9164 22.7435 11.7936 22.6478 11.6958 22.5289L6.23126 15.8956L6.22918 15.8935C6.12011 15.763 6.01281 15.631 5.9073 15.4976L5.76876 15.3279C5.71532 15.2634 5.66985 15.1928 5.63334 15.1174C4.77982 13.8736 4.28017 12.4213 4.18776 10.9156C4.09535 9.40988 4.41364 7.90736 5.10865 6.56848C5.80366 5.22959 6.84927 4.10462 8.13384 3.3137C9.4184 2.52279 10.8937 2.09563 12.4021 2.07785V2.07681ZM15.625 10.4133C15.6326 10.8284 15.5574 11.2408 15.4038 11.6266C15.2501 12.0123 15.0212 12.3635 14.7303 12.6598C14.4394 12.956 14.0924 13.1913 13.7096 13.352C13.3267 13.5126 12.9157 13.5953 12.5005 13.5953C12.0853 13.5953 11.6743 13.5126 11.2915 13.352C10.9086 13.1913 10.5616 12.956 10.2707 12.6598C9.97986 12.3635 9.75092 12.0123 9.5973 11.6266C9.44368 11.2408 9.36847 10.8284 9.37605 10.4133C9.391 9.59448 9.72676 8.81429 10.3111 8.24053C10.8954 7.66678 11.6816 7.34532 12.5005 7.34532C13.3194 7.34532 14.1056 7.66678 14.69 8.24053C15.2743 8.81429 15.6101 9.59448 15.625 10.4133Z" fill="#454545"/>
</svg>
