<svg width="15" height="17" viewBox="0 0 15 17" fill="none" xmlns="http://www.w3.org/2000/svg">
<g clip-path="url(#clip0_4158_214)">
<path d="M12.247 6.74154C12.247 10.0702 8.97128 13.5369 7.87128 14.6075C7.76881 14.6944 7.64406 14.7414 7.51585 14.7414C7.38764 14.7414 7.2629 14.6944 7.16042 14.6075C6.06042 13.5369 2.78467 10.0702 2.78467 6.74154C2.78467 5.32705 3.28313 3.97049 4.1704 2.9703C5.05767 1.97011 6.26106 1.4082 7.51585 1.4082C8.77064 1.4082 9.97403 1.97011 10.8613 2.9703C11.7486 3.97049 12.247 5.32705 12.247 6.74154Z" stroke="#6a7282" stroke-width="1.5" stroke-linecap="round" stroke-linejoin="round"/>
<path d="M7.51589 8.74023C8.49575 8.74023 9.29009 7.8448 9.29009 6.74023C9.29009 5.63566 8.49575 4.74023 7.51589 4.74023C6.53603 4.74023 5.7417 5.63566 5.7417 6.74023C5.7417 7.8448 6.53603 8.74023 7.51589 8.74023Z" stroke="#6a7282" stroke-width="1.5" stroke-linecap="round" stroke-linejoin="round"/>
</g>
<defs>
<clipPath id="clip0_4158_214">
<rect width="14.1935" height="16" fill="white" transform="translate(0.419189 0.0742188)"/>
</clipPath>
</defs>
</svg>
