<svg width="20" height="20" viewBox="0 0 20 20" fill="none" xmlns="http://www.w3.org/2000/svg">
<g clip-path="url(#clip0_4368_381)">
<path d="M12.7807 17.0725L12.0676 16.7843C11.3929 16.5106 10.5213 16.5106 9.84423 16.7843L9.13113 17.0725C8.80459 17.2045 8.31238 17.2045 7.98824 17.0725L7.27514 16.7843C6.60045 16.5106 5.72888 16.5106 5.05179 16.7843L4.1202 17.1613C4.03235 17.1967 3.95235 17.2491 3.88477 17.3155C3.81718 17.3819 3.76335 17.4609 3.72633 17.5481C3.68931 17.6353 3.66984 17.7289 3.66904 17.8236C3.66823 17.9183 3.6861 18.0123 3.72163 18.1001C3.79359 18.2772 3.93278 18.4185 4.10873 18.4932C4.28467 18.5679 4.48304 18.5699 4.66043 18.4987L5.59202 18.1217C5.91856 17.9897 6.40837 17.9897 6.73491 18.1217L7.44801 18.4098C7.78655 18.5467 8.17312 18.6139 8.55968 18.6139C8.94625 18.6139 9.33281 18.5467 9.67135 18.4098L10.3845 18.1217C10.711 17.9897 11.2008 17.9897 11.5273 18.1217L12.2404 18.4098C12.6102 18.5587 13.028 18.381 13.1792 18.0113C13.3281 17.6415 13.1504 17.2213 12.7807 17.0725ZM8.20193 14.3305L7.48883 14.076C6.83095 13.8407 5.98099 13.8407 5.32071 14.076L4.38911 14.4097C4.30011 14.4415 4.21825 14.4904 4.14821 14.5539C4.07817 14.6173 4.02134 14.6939 3.98097 14.7793C3.94059 14.8648 3.91748 14.9573 3.91294 15.0517C3.9084 15.1461 3.92254 15.2404 3.95453 15.3293C4.08898 15.7039 4.49956 15.9008 4.87412 15.7639L5.80571 15.4302C6.14666 15.3077 6.66288 15.3077 7.00382 15.4302L7.71692 15.6847C8.04586 15.8023 8.42282 15.8623 8.79978 15.8623C9.17674 15.8623 9.5537 15.8023 9.88264 15.6847L10.5957 15.4302C10.6678 15.4038 10.7494 15.3845 10.8407 15.3677C11.232 15.3005 11.4961 14.9284 11.4289 14.537C11.3966 14.3489 11.291 14.1813 11.1352 14.071C10.9795 13.9607 10.7863 13.9167 10.5981 13.9487C10.4253 13.9775 10.262 14.0208 10.1107 14.0736L9.39764 14.3281C9.05669 14.4529 8.54288 14.4529 8.20193 14.3305ZM9.26798 11.5621C8.97746 11.6582 8.53807 11.6582 8.24515 11.5621L7.62088 11.358C7.03744 11.166 6.28352 11.166 5.70007 11.358L4.88612 11.6245C4.70473 11.6847 4.55447 11.8141 4.46811 11.9845C4.38175 12.155 4.3663 12.3527 4.42513 12.5345C4.48525 12.7159 4.61466 12.8662 4.78513 12.9525C4.9556 13.0389 5.1533 13.0544 5.33511 12.9955L6.14906 12.729C6.43958 12.633 6.87897 12.633 7.17189 12.729L7.79616 12.9331C8.08668 13.0291 8.42282 13.0772 8.75657 13.0772C9.09031 13.0772 9.42405 13.0291 9.71697 12.9331C9.89836 12.873 10.0486 12.7436 10.135 12.5731C10.2213 12.4026 10.2368 12.2049 10.178 12.0231C10.1181 11.8416 9.98869 11.6911 9.81815 11.6048C9.64761 11.5184 9.4498 11.503 9.26798 11.5621ZM5.59202 10.2055H7.48643C7.885 10.2055 8.20673 9.88381 8.20673 9.48524C8.20673 9.08667 7.885 8.76493 7.48643 8.76493H5.59202C5.19345 8.76493 4.87172 9.08667 4.87172 9.48524C4.87172 9.88381 5.19345 10.2055 5.59202 10.2055ZM7.95703 7.00739H7.99784L16.1181 7.09142C16.5167 7.10343 16.8408 6.77689 16.8456 6.37832C16.8504 5.97975 16.5311 5.65561 16.1325 5.65081L14.423 5.634L12.7255 4.08534L15.8324 2.18614L18.7592 5.35548C18.9009 5.50915 19.0954 5.58838 19.2898 5.58838C19.4651 5.58838 19.6404 5.52596 19.7772 5.3963C19.9176 5.26667 20.0007 5.08662 20.0084 4.89573C20.016 4.70484 19.9476 4.51872 19.8181 4.37827L16.4903 0.776738C16.3771 0.654545 16.2252 0.57515 16.0603 0.551965C15.8954 0.528781 15.7275 0.563226 15.5851 0.649484L11.6162 3.07451L10.9391 2.45745C10.759 2.29418 10.5093 2.23176 10.274 2.29178L7.69531 2.95686L6.55483 1.92923C6.31473 1.71314 5.95938 1.68432 5.68566 1.8572L4.1298 2.84642L2.9437 1.90282C2.67718 1.68913 2.29542 1.69393 2.03371 1.91242L0.259355 3.39385C0.112848 3.51661 0.0209774 3.69244 0.00387529 3.88281C-0.0132268 4.07319 0.0458342 4.26258 0.168117 4.40948C0.290876 4.55599 0.466707 4.64786 0.65708 4.66496C0.847453 4.68206 1.03684 4.623 1.18375 4.50072L2.50671 3.39625L4.81889 5.23543C4.95095 5.34108 5.10942 5.3915 5.26788 5.3915C5.47917 5.3915 5.69046 5.29786 5.83212 5.12018C6.07943 4.80805 6.02901 4.35666 5.71687 4.10695L5.32551 3.79482L6.0002 3.36504L6.97261 4.24141L8.00745 5.56677C5.58242 5.54276 3.4287 7.15625 2.76602 9.48764L0.218538 18.4314C0.188243 18.5386 0.183118 18.6513 0.203564 18.7608C0.224011 18.8703 0.269475 18.9736 0.33641 19.0626C0.403345 19.1516 0.489942 19.2239 0.589443 19.274C0.688945 19.324 0.798661 19.3504 0.910032 19.351C1.22457 19.351 1.51269 19.1445 1.60153 18.8276L4.14661 9.88621C4.63161 8.18629 6.19468 7.00739 7.95703 7.00739ZM12.2621 5.61239L9.84663 5.58598L8.74456 4.17178L10.2572 3.78282L12.2621 5.61239ZM19.1794 7.83094L11.7626 7.72769H11.7338C10.9799 7.72769 10.3028 8.14307 9.95708 8.81295C9.78596 9.14411 9.71144 9.51671 9.74201 9.88821C9.77258 10.2597 9.90701 10.6151 10.1299 10.9138C10.142 10.9283 10.154 10.9451 10.166 10.9595L17.3498 19.207C17.4119 19.2783 17.4874 19.3367 17.5721 19.3788C17.6567 19.4209 17.7489 19.4459 17.8432 19.4523C17.9375 19.4588 18.0322 19.4466 18.1218 19.4165C18.2114 19.3863 18.2942 19.3388 18.3654 19.2766C18.4368 19.2145 18.4952 19.139 18.5373 19.0544C18.5794 18.9697 18.6044 18.8776 18.6109 18.7832C18.6174 18.6889 18.6052 18.5942 18.575 18.5046C18.5448 18.415 18.4973 18.3322 18.4351 18.261L11.2728 10.0375C11.1048 9.79257 11.1912 9.56207 11.2392 9.47083C11.2872 9.37719 11.4289 9.1611 11.7434 9.1683L19.1602 9.27155C19.5492 9.26675 19.8853 8.95941 19.8901 8.56085C19.8916 8.3701 19.8179 8.18645 19.6848 8.04978C19.5517 7.91311 19.3701 7.83447 19.1794 7.83094Z" fill="black"/>
</g>
<defs>
<clipPath id="clip0_4368_381">
<rect width="20" height="20" fill="white"/>
</clipPath>
</defs>
</svg>
