<svg width="20" height="20" viewBox="0 0 20 20" fill="none" xmlns="http://www.w3.org/2000/svg">
<g clip-path="url(#clip0_4368_388)">
<path d="M12.7752 9.64062H7.69099C7.65474 9.64062 7.62524 9.67012 7.62524 9.70637V12.3913C7.62524 12.4276 7.65478 12.4571 7.69099 12.4571H12.7752C12.8114 12.4571 12.8409 12.4275 12.8409 12.3913V9.70637C12.8409 9.67012 12.8114 9.64062 12.7752 9.64062ZM12.0651 11.6813H8.40103V10.4168H12.0651V11.6813Z" fill="black"/>
<path d="M19.9343 11.0429C19.9705 11.0429 20 11.0134 20 10.9771V10.118C20 10.0817 19.9705 10.0522 19.9343 10.0522H14.7741V5.96418C14.7718 5.09762 14.4829 4.26988 13.9601 3.63293C13.685 3.30164 13.3571 3.03641 12.9855 2.84496C12.5865 2.64227 12.1423 2.53516 11.701 2.53516C11.2584 2.53516 10.8139 2.64227 10.4146 2.84531C9.86781 3.12656 9.41113 3.57555 9.09398 4.1432C8.7893 4.68555 8.62832 5.31539 8.62832 5.96449C8.62832 6.71141 9.23605 7.31918 9.98266 7.31918C10.7296 7.31918 11.3373 6.71145 11.3373 5.96387C11.3351 5.7307 11.4063 5.5059 11.5285 5.36191C11.5855 5.29297 11.6337 5.26504 11.6449 5.2593C11.6724 5.2468 11.6862 5.24422 11.701 5.24422C11.7157 5.24422 11.7298 5.2468 11.7529 5.25703C11.8228 5.29586 11.8898 5.3693 11.9425 5.46391C12.0214 5.6057 12.065 5.78367 12.065 5.96453V7.70727H8.4009V5.96453C8.4009 5.09992 8.11164 4.27219 7.5866 3.63297C7.31305 3.30266 6.9859 3.03773 6.61457 2.845C6.21559 2.6423 5.77141 2.5352 5.33012 2.5352C4.88629 2.5352 4.44078 2.6423 4.04152 2.84535C3.49344 3.12855 3.03676 3.57719 2.72117 4.14324C2.41652 4.68941 2.2552 5.3193 2.2552 5.96453C2.2552 6.71145 2.86293 7.31922 3.60988 7.31922C4.35648 7.31922 4.96422 6.71148 4.96422 5.96453C4.96422 5.7343 5.03734 5.50367 5.15535 5.36195C5.19512 5.31383 5.23422 5.27953 5.27145 5.25934C5.29969 5.24648 5.31379 5.24426 5.33016 5.24426C5.34297 5.24426 5.35711 5.24684 5.3802 5.25707C5.45012 5.2959 5.51809 5.36965 5.57168 5.46395C5.64926 5.60312 5.69195 5.78113 5.69195 5.96457V10.0523H0.0657422C0.0294922 10.0523 0 10.0818 0 10.1181V10.9771C0 11.0134 0.0294922 11.0429 0.0657422 11.0429H5.69191C5.69191 11.0429 5.69191 15.7842 5.69191 15.789C5.47801 15.8625 5.3 15.951 5.1666 16.0212L5.01777 16.1011C4.84297 16.1954 4.6916 16.2772 4.52418 16.3394C4.35164 16.4016 4.09766 16.4731 3.6634 16.4754C3.35395 16.4754 3.11113 16.4414 2.87609 16.3648C2.74461 16.3221 2.61984 16.2673 2.45852 16.182L2.30906 16.1021C2.13652 16.0081 1.9409 15.902 1.6975 15.8115C1.34055 15.68 0.954062 15.6162 0.496133 15.6162C0.49582 15.6162 0.0657422 15.6162 0.0657422 15.6162C0.0294922 15.6162 0 15.6457 0 15.682V16.5411C0 16.5774 0.0294922 16.6069 0.0657422 16.6069H0.495508C0.802734 16.6069 1.04582 16.6402 1.28188 16.715C1.44254 16.7691 1.57789 16.8352 1.69977 16.8978L1.83059 16.9686C2.00824 17.0661 2.20934 17.1762 2.46109 17.2685C2.81547 17.4013 3.20867 17.4661 3.6634 17.4661C4.07426 17.4661 4.43215 17.4135 4.75801 17.3061C4.98313 17.2323 5.17266 17.1399 5.32855 17.0588L5.49242 16.9709C5.66113 16.8798 5.80703 16.8009 5.96996 16.7406L6.00363 16.7291C6.03633 16.7179 6.06973 16.7063 6.10691 16.6967C6.31664 16.6354 6.54629 16.6069 6.82977 16.6069C7.13668 16.6069 7.37945 16.6402 7.61617 16.715C7.7018 16.7442 7.78164 16.7756 7.85895 16.8112C7.91762 16.8385 7.97473 16.8657 8.03402 16.8978L8.16551 16.9689C8.34254 17.0661 8.54363 17.1765 8.7957 17.2685C9.15234 17.4013 9.54555 17.4661 9.9977 17.4661C10.4107 17.4661 10.7687 17.4134 11.0923 17.306C11.3289 17.2284 11.5217 17.1331 11.6628 17.0591L11.8376 16.9658C12.0031 16.8766 12.1461 16.7996 12.3052 16.7403C12.3578 16.7214 12.412 16.7047 12.4704 16.688C12.6711 16.6325 12.8921 16.6069 13.166 16.6069C13.4732 16.6069 13.7163 16.6402 13.9527 16.715C14.047 16.7467 14.1326 16.7817 14.2166 16.8218C14.2673 16.8452 14.318 16.8705 14.3703 16.8978L14.5011 16.9686C14.6785 17.0658 14.8799 17.1762 15.132 17.2685C15.4886 17.4013 15.8818 17.4661 16.3343 17.4661C16.7467 17.4661 17.1049 17.4135 17.4285 17.3061C17.6552 17.2326 17.8454 17.1399 18.0016 17.0588L18.1582 16.9751C18.3294 16.8824 18.4772 16.8025 18.645 16.7423C18.8137 16.6791 19.0638 16.6069 19.5045 16.6069H19.9343C19.9705 16.6069 20 16.5774 20 16.5412V15.682C20 15.6457 19.9705 15.6162 19.9343 15.6162H19.5045C19.0937 15.6162 18.7357 15.6679 18.4102 15.774C18.1732 15.8516 17.9804 15.9469 17.839 16.0213L17.6941 16.0992C17.518 16.1945 17.3657 16.2769 17.1973 16.3394C17.0248 16.4016 16.7704 16.4732 16.3343 16.4754C16.029 16.4754 15.7788 16.4404 15.547 16.3648C15.4155 16.3221 15.2907 16.2673 15.1297 16.1823L15.0011 16.113C14.9296 16.0742 14.8543 16.0335 14.7741 15.9931V11.0429H19.9343ZM12.065 15.7762C11.8425 15.8497 11.6552 15.9411 11.5006 16.0212L11.3482 16.1034C11.1757 16.1967 11.0266 16.2775 10.8582 16.3394C10.6876 16.4016 10.4355 16.4731 9.99773 16.4754C9.69242 16.4754 9.44227 16.4404 9.21043 16.3648C9.07988 16.3224 8.95512 16.2676 8.7932 16.1823L8.6607 16.1111C8.57957 16.0671 8.49395 16.0209 8.40094 15.9745V14.3902H12.065C12.065 14.3901 12.065 15.7756 12.065 15.7762ZM13.9983 15.7015C13.7452 15.6441 13.4813 15.6162 13.1936 15.6162H13.1661C13.0512 15.6162 12.9438 15.6204 12.8409 15.6277V13.6801C12.8409 13.6438 12.8113 13.6143 12.7751 13.6143H7.6909C7.65465 13.6143 7.62516 13.6438 7.62516 13.6801V15.6938C7.38687 15.6421 7.12711 15.6162 6.83141 15.6162C6.83078 15.6162 6.83047 15.6162 6.8298 15.6162C6.69543 15.6162 6.57648 15.621 6.46805 15.6306V5.96445C6.46805 5.64566 6.39141 5.34195 6.24676 5.08637C6.1175 4.85293 5.93535 4.66879 5.73395 4.56746C5.60215 4.50074 5.46937 4.46805 5.32824 4.46805C5.18715 4.46805 5.05438 4.50074 4.92285 4.56746C4.79199 4.63289 4.6666 4.73617 4.56047 4.86574C4.3241 5.14863 4.18844 5.54918 4.18844 5.96449C4.18844 6.28359 3.92895 6.54309 3.60988 6.54309C3.29078 6.54309 3.03129 6.28359 3.03129 5.96449C3.03129 5.45234 3.15832 4.95301 3.39883 4.52098C3.64191 4.08738 3.98668 3.74645 4.39559 3.53574C4.68359 3.38855 5.00652 3.31094 5.33012 3.31094C5.65082 3.31094 5.9725 3.38855 6.26047 3.53574C6.53598 3.67754 6.78133 3.87668 6.98945 4.1268C7.3993 4.6252 7.62508 5.2775 7.62508 5.96445V8.41758C7.62508 8.45379 7.65461 8.48332 7.69082 8.48332H12.775C12.8112 8.48332 12.8408 8.45379 12.8408 8.41758V5.96445C12.8408 5.64539 12.7641 5.34164 12.6198 5.08637C12.4903 4.85227 12.3071 4.66816 12.1051 4.56777C11.9752 4.50074 11.8427 4.46805 11.701 4.46805C11.5599 4.46805 11.4271 4.50074 11.2956 4.56746C11.1667 4.63227 11.0407 4.7352 10.931 4.86574C10.6939 5.15215 10.5593 5.5527 10.5615 5.96449C10.5615 6.28359 10.3018 6.54309 9.98266 6.54309C9.66355 6.54309 9.4041 6.28359 9.4041 5.96449C9.4041 5.44879 9.53109 4.9498 9.77164 4.52098C10.0147 4.08738 10.3595 3.7468 10.7687 3.53574C11.0567 3.38855 11.3796 3.31094 11.7032 3.31094C12.0239 3.31094 12.3456 3.38855 12.6333 3.53574C12.911 3.67977 13.1557 3.87891 13.3604 4.1268C13.7696 4.62422 13.996 5.27688 13.9982 5.96445L13.9983 15.7015Z" fill="black"/>
</g>
<defs>
<clipPath id="clip0_4368_388">
<rect width="20" height="20" fill="white"/>
</clipPath>
</defs>
</svg>
