<svg width="18" height="14" viewBox="0 0 18 14" fill="none" xmlns="http://www.w3.org/2000/svg">
<path d="M16.7143 12.6V11.2C16.7114 9.09491 15.9833 7.06761 14.6739 5.51883C13.3646 3.97006 11.5693 3.01252 9.64286 2.83549V1.4H11.5714V0H6.42857V1.4H8.35714V2.83549C6.43074 3.01252 4.63543 3.97006 3.32608 5.51883C2.01673 7.06761 1.28864 9.09491 1.28571 11.2V12.6H0V14H18V12.6H16.7143ZM9 4.2C10.4813 4.20212 11.9166 4.76027 13.064 5.78035C14.2114 6.80044 15.0007 8.22009 15.299 9.8H2.70096C2.99917 8.22006 3.78852 6.80039 4.93595 5.7803C6.08338 4.76021 7.51871 4.20208 9 4.2ZM2.57143 11.2H15.4286V12.6H2.57143V11.2Z" fill="black"/>
</svg>
