<svg width="15" height="17" viewBox="0 0 15 17" fill="none" xmlns="http://www.w3.org/2000/svg">
  <path d="M7.364 1.605a.34.34 0 0 1 .116-.144.3.3 0 0 1 .165-.053q.09.001.166.053.076.054.115.144l1.366 3.12c.09.205.223.382.387.517.165.135.355.222.557.255l3.055.504q.088.015.157.08a.36.36 0 0 1 .096.16q.027.097.006.195a.4.4 0 0 1-.085.168l-2.21 2.425a1.45 1.45 0 0 0-.318.576c-.063.218-.078.45-.043.676l.521 3.427a.4.4 0 0 1-.018.194.35.35 0 0 1-.106.154.28.28 0 0 1-.332.026l-2.73-1.62a1.14 1.14 0 0 0-.584-.162c-.203 0-.404.056-.583.163l-2.73 1.619A.28.28 0 0 1 4 14.055a.35.35 0 0 1-.106-.153.4.4 0 0 1-.018-.194l.52-3.426a1.6 1.6 0 0 0-.043-.677 1.45 1.45 0 0 0-.318-.576l-2.21-2.424a.4.4 0 0 1-.085-.169.4.4 0 0 1 .006-.194.36.36 0 0 1 .096-.162Q1.912 6.016 2 6l3.054-.503a1.2 1.2 0 0 0 .557-.255c.165-.134.298-.312.388-.518z" fill="#F8701B" stroke="#F8701B" stroke-width="2" stroke-linecap="round" stroke-linejoin="round"/>
</svg>
