<svg width="15" height="16" viewBox="0 0 15 16" fill="none" xmlns="http://www.w3.org/2000/svg">
  <path d="M6.816 1.53a.34.34 0 0 1 .115-.143.3.3 0 0 1 .166-.053q.089 0 .165.053.076.054.116.144L8.744 4.65c.09.205.222.383.387.518.164.134.355.222.556.255l3.055.504q.088.015.157.08a.36.36 0 0 1 .096.16q.027.096.007.195a.4.4 0 0 1-.086.168l-2.21 2.425a1.45 1.45 0 0 0-.317.576 1.6 1.6 0 0 0-.044.676l.522 3.427a.4.4 0 0 1-.018.194.35.35 0 0 1-.107.153.28.28 0 0 1-.332.026L7.68 12.39a1.14 1.14 0 0 0-.584-.163c-.203 0-.403.056-.583.163l-2.73 1.618a.28.28 0 0 1-.332-.026.35.35 0 0 1-.106-.154.4.4 0 0 1-.018-.193l.521-3.426c.035-.226.02-.459-.043-.677a1.45 1.45 0 0 0-.318-.576l-2.21-2.424a.4.4 0 0 1-.086-.169.4.4 0 0 1 .006-.195.36.36 0 0 1 .096-.161q.07-.065.158-.08l3.055-.503a1.2 1.2 0 0 0 .557-.255c.164-.135.297-.312.387-.518z" fill="#fff" stroke="#F8701B" stroke-width="1.5" stroke-linecap="round" stroke-linejoin="round"/>
</svg>
