<svg width="48" height="48" viewBox="0 0 48 48" fill="none" xmlns="http://www.w3.org/2000/svg">
<rect width="48" height="48" rx="4" fill="#2563EB" fill-opacity="0.1"/>
<g clip-path="url(#clip0_4338_348)">
<path d="M37.3334 36H10.6667V33.3333H12.0001V13.3333C12.0001 12.9797 12.1406 12.6406 12.3906 12.3905C12.6407 12.1405 12.9798 12 13.3334 12H32.0001C32.3537 12 32.6929 12.1405 32.9429 12.3905C33.1929 12.6406 33.3334 12.9797 33.3334 13.3333V20H36.0001V33.3333H37.3334V36ZM30.6668 33.3333H33.3334V22.6667H25.3334V33.3333H28.0001V25.3333H30.6668V33.3333ZM30.6668 20V14.6667H14.6667V33.3333H22.6668V20H30.6668ZM17.3334 22.6667H20.0001V25.3333H17.3334V22.6667ZM17.3334 28H20.0001V30.6667H17.3334V28ZM17.3334 17.3333H20.0001V20H17.3334V17.3333Z" fill="#3A7CFF"/>
</g>
<defs>
<clipPath id="clip0_4338_348">
<rect width="32" height="32" fill="white" transform="translate(8 8)"/>
</clipPath>
</defs>
</svg>
