<svg width="48" height="48" viewBox="0 0 48 48" fill="none" xmlns="http://www.w3.org/2000/svg">
<rect width="48" height="48" rx="4" fill="#2563EB" fill-opacity="0.1"/>
<path d="M24.0001 37.3327C31.3639 37.3327 37.3334 31.3632 37.3334 23.9994C37.3334 16.6356 31.3639 10.666 24.0001 10.666C16.6363 10.666 10.6667 16.6356 10.6667 23.9994C10.6667 31.3632 16.6363 37.3327 24.0001 37.3327Z" stroke="#3A7CFF" stroke-width="2.5"/>
<path d="M24 16V32" stroke="#3A7CFF" stroke-width="2.5" stroke-linecap="round"/>
<path d="M28 20.6673C28 18.8264 26.2092 17.334 24 17.334C21.7908 17.334 20 18.8264 20 20.6673C20 22.5083 21.7908 24.0007 24 24.0007C26.2092 24.0007 28 25.4931 28 27.334C28 29.1749 26.2092 30.6673 24 30.6673C21.7908 30.6673 20 29.1749 20 27.334" stroke="#3A7CFF" stroke-width="2.5" stroke-linecap="round"/>
</svg>
