<svg width="150" height="70" viewBox="0 0 150 70" fill="none" xmlns="http://www.w3.org/2000/svg">
<rect width="150" height="70" rx="4" fill="#F0F0F7"/>
<rect x="0.5" y="0.5" width="149" height="69" rx="3.5" stroke="#2563EB" stroke-opacity="0.1"/>
<path d="M79 30.9995L75 26.9995M75 26.9995L71 30.9995M75 26.9995V35.9995M83.39 33.3895C84.3653 32.8578 85.1358 32.0164 85.5798 30.9981C86.0239 29.9799 86.1162 28.8427 85.8422 27.7662C85.5682 26.6896 84.9434 25.735 84.0666 25.0529C83.1898 24.3709 82.1108 24.0002 81 23.9995H79.74C79.4373 22.8287 78.8731 21.7418 78.0899 20.8205C77.3067 19.8991 76.3248 19.1673 75.2181 18.6801C74.1113 18.1929 72.9085 17.9629 71.7001 18.0074C70.4916 18.0519 69.309 18.3698 68.2411 18.9372C67.1732 19.5045 66.2479 20.3066 65.5346 21.2831C64.8213 22.2596 64.3387 23.385 64.1229 24.5749C63.9072 25.7647 63.9641 26.988 64.2892 28.1528C64.6143 29.3175 65.1992 30.3934 66 31.2995" stroke="#2563EB" stroke-opacity="0.7" stroke-width="1.7" stroke-linecap="round" stroke-linejoin="round"/>
<path d="M62.969 46.7273H64.0699V51.5107C64.0699 52.0196 63.9503 52.4706 63.7112 52.8636C63.4721 53.2543 63.1359 53.562 62.7027 53.7869C62.2694 54.0095 61.7616 54.1207 61.1792 54.1207C60.5992 54.1207 60.0926 54.0095 59.6594 53.7869C59.2261 53.562 58.8899 53.2543 58.6508 52.8636C58.4117 52.4706 58.2922 52.0196 58.2922 51.5107V46.7273H59.3895V51.4219C59.3895 51.7509 59.4617 52.0433 59.6061 52.299C59.7529 52.5547 59.96 52.7559 60.2275 52.9027C60.4951 53.0471 60.8123 53.1193 61.1792 53.1193C61.5486 53.1193 61.867 53.0471 62.1345 52.9027C62.4044 52.7559 62.6104 52.5547 62.7524 52.299C62.8968 52.0433 62.969 51.7509 62.969 51.4219V46.7273ZM65.58 56.0455V48.5455H66.6169V49.4297H66.7057C66.7673 49.3161 66.856 49.1847 66.972 49.0355C67.088 48.8864 67.249 48.7562 67.455 48.6449C67.661 48.5312 67.9332 48.4744 68.2718 48.4744C68.7121 48.4744 69.1051 48.5857 69.4507 48.8082C69.7964 49.0308 70.0674 49.3516 70.2639 49.7706C70.4628 50.1896 70.5622 50.6939 70.5622 51.2834C70.5622 51.8729 70.464 52.3783 70.2675 52.7997C70.071 53.2187 69.8011 53.5419 69.4578 53.7692C69.1146 53.9941 68.7227 54.1065 68.2824 54.1065C67.951 54.1065 67.6799 54.0509 67.4692 53.9396C67.2609 53.8284 67.0975 53.6982 66.9791 53.549C66.8608 53.3999 66.7696 53.2673 66.7057 53.1513H66.6418V56.0455H65.58ZM66.6205 51.2727C66.6205 51.6562 66.6761 51.9924 66.7874 52.2812C66.8986 52.5701 67.0596 52.7962 67.2703 52.9595C67.481 53.1205 67.7391 53.201 68.0445 53.201C68.3617 53.201 68.6269 53.117 68.8399 52.9489C69.053 52.7784 69.214 52.5476 69.3229 52.2564C69.4342 51.9652 69.4898 51.6373 69.4898 51.2727C69.4898 50.9129 69.4353 50.5897 69.3264 50.3033C69.2199 50.0168 69.0589 49.7907 68.8435 49.625C68.6304 49.4593 68.3641 49.3764 68.0445 49.3764C67.7367 49.3764 67.4763 49.4557 67.2632 49.6143C67.0525 49.773 66.8927 49.9943 66.7838 50.2784C66.6749 50.5625 66.6205 50.8939 66.6205 51.2727ZM72.8137 46.7273V54H71.7519V46.7273H72.8137ZM76.5397 54.1101C76.0283 54.1101 75.5821 53.9929 75.2009 53.7585C74.8198 53.5241 74.5238 53.1963 74.3131 52.7749C74.1024 52.3535 73.9971 51.861 73.9971 51.2976C73.9971 50.7318 74.1024 50.237 74.3131 49.8132C74.5238 49.3894 74.8198 49.0604 75.2009 48.826C75.5821 48.5916 76.0283 48.4744 76.5397 48.4744C77.051 48.4744 77.4973 48.5916 77.8785 48.826C78.2596 49.0604 78.5555 49.3894 78.7662 49.8132C78.9769 50.237 79.0823 50.7318 79.0823 51.2976C79.0823 51.861 78.9769 52.3535 78.7662 52.7749C78.5555 53.1963 78.2596 53.5241 77.8785 53.7585C77.4973 53.9929 77.051 54.1101 76.5397 54.1101ZM76.5432 53.2188C76.8747 53.2188 77.1493 53.1312 77.3671 52.956C77.5849 52.7808 77.7459 52.5476 77.8501 52.2564C77.9566 51.9652 78.0099 51.6444 78.0099 51.294C78.0099 50.946 77.9566 50.6264 77.8501 50.3352C77.7459 50.0417 77.5849 49.8061 77.3671 49.6286C77.1493 49.451 76.8747 49.3622 76.5432 49.3622C76.2094 49.3622 75.9324 49.451 75.7123 49.6286C75.4945 49.8061 75.3323 50.0417 75.2258 50.3352C75.1216 50.6264 75.0695 50.946 75.0695 51.294C75.0695 51.6444 75.1216 51.9652 75.2258 52.2564C75.3323 52.5476 75.4945 52.7808 75.7123 52.956C75.9324 53.1312 76.2094 53.2188 76.5432 53.2188ZM81.8548 54.1207C81.5092 54.1207 81.1967 54.0568 80.9173 53.929C80.638 53.7988 80.4166 53.6106 80.2533 53.3643C80.0923 53.1181 80.0118 52.8163 80.0118 52.4588C80.0118 52.151 80.071 51.8977 80.1894 51.6989C80.3077 51.5 80.4675 51.3426 80.6688 51.2266C80.87 51.1106 81.0949 51.023 81.3435 50.9638C81.5921 50.9046 81.8454 50.8596 82.1034 50.8288C82.4301 50.791 82.6953 50.7602 82.8989 50.7365C83.1025 50.7105 83.2504 50.669 83.3428 50.6122C83.4351 50.5554 83.4813 50.4631 83.4813 50.3352V50.3104C83.4813 50.0002 83.3937 49.7599 83.2185 49.5895C83.0457 49.419 82.7876 49.3338 82.4443 49.3338C82.0869 49.3338 81.8051 49.4131 81.5992 49.5717C81.3956 49.728 81.2547 49.902 81.1766 50.0938L80.1787 49.8665C80.2971 49.535 80.4699 49.2675 80.6972 49.0639C80.9268 48.858 81.1908 48.7088 81.4891 48.6165C81.7874 48.5218 82.1011 48.4744 82.4301 48.4744C82.6479 48.4744 82.8788 48.5005 83.1226 48.5526C83.3688 48.6023 83.5985 48.6946 83.8115 48.8295C84.027 48.9645 84.2033 49.1574 84.3406 49.4084C84.478 49.657 84.5466 49.9801 84.5466 50.3778V54H83.5097V53.2543H83.4671C83.3984 53.3916 83.2954 53.5265 83.1581 53.6591C83.0208 53.7917 82.8444 53.9018 82.629 53.9893C82.4136 54.0769 82.1555 54.1207 81.8548 54.1207ZM82.0857 53.2685C82.3792 53.2685 82.6302 53.2105 82.8385 53.0945C83.0492 52.9785 83.209 52.8269 83.3179 52.6399C83.4292 52.4505 83.4848 52.2481 83.4848 52.0327V51.3295C83.4469 51.3674 83.3736 51.4029 83.2646 51.4361C83.1581 51.4669 83.0362 51.4941 82.8989 51.5178C82.7616 51.5391 82.6278 51.5592 82.4976 51.5781C82.3674 51.5947 82.2585 51.6089 82.1709 51.6207C81.9649 51.6468 81.7767 51.6906 81.6063 51.7521C81.4382 51.8137 81.3032 51.9025 81.2014 52.0185C81.102 52.1321 81.0523 52.2836 81.0523 52.473C81.0523 52.7358 81.1494 52.9347 81.3435 53.0696C81.5376 53.2022 81.785 53.2685 82.0857 53.2685ZM88.0028 54.1065C87.5624 54.1065 87.1694 53.9941 86.8238 53.7692C86.4805 53.5419 86.2106 53.2187 86.0141 52.7997C85.82 52.3783 85.7229 51.8729 85.7229 51.2834C85.7229 50.6939 85.8212 50.1896 86.0177 49.7706C86.2165 49.3516 86.4888 49.0308 86.8344 48.8082C87.1801 48.5857 87.5719 48.4744 88.0099 48.4744C88.3484 48.4744 88.6206 48.5312 88.8266 48.6449C89.0349 48.7562 89.1959 48.8864 89.3096 49.0355C89.4256 49.1847 89.5155 49.3161 89.5795 49.4297H89.6434V46.7273H90.7052V54H89.6682V53.1513H89.5795C89.5155 53.2673 89.4232 53.3999 89.3025 53.549C89.1841 53.6982 89.0207 53.8284 88.8124 53.9396C88.6041 54.0509 88.3342 54.1065 88.0028 54.1065ZM88.2371 53.201C88.5425 53.201 88.8006 53.1205 89.0113 52.9595C89.2243 52.7962 89.3853 52.5701 89.4942 52.2812C89.6055 51.9924 89.6611 51.6562 89.6611 51.2727C89.6611 50.8939 89.6067 50.5625 89.4978 50.2784C89.3889 49.9943 89.2291 49.773 89.0184 49.6143C88.8077 49.4557 88.5473 49.3764 88.2371 49.3764C87.9175 49.3764 87.6512 49.4593 87.4381 49.625C87.2251 49.7907 87.0641 50.0168 86.9552 50.3033C86.8486 50.5897 86.7954 50.9129 86.7954 51.2727C86.7954 51.6373 86.8498 51.9652 86.9587 52.2564C87.0676 52.5476 87.2286 52.7784 87.4417 52.9489C87.6571 53.117 87.9223 53.201 88.2371 53.201Z" fill="#2563EB" fill-opacity="0.7"/>
</svg>
