<svg version="1.1" xmlns="http://www.w3.org/2000/svg" viewBox="0 0 24 24"><g clip-path="url(#clip0_24294_2227)"><path fill-rule="evenodd" clip-rule="evenodd" d="M11.5 2c-1.958 0-3.147.196-4.566.589A4 4 0 0 0 4 6.444V15a4 4 0 0 0 4 4h8a4 4 0 0 0 4-4V6.444a4 4 0 0 0-2.934-3.855C15.647 2.196 14.458 2 12.5 2h-1ZM8.892 12h6.216c.77 0 1.466-.44 1.798-1.124l.066-.15 1.398-3.59c.086-.22.13-.455.13-.692l-.007-.176a2.498 2.498 0 0 0-1.827-2.233C15.388 3.681 14.331 3.5 12.5 3.5h-1c-1.831 0-2.888.181-4.166.535a2.498 2.498 0 0 0-1.827 2.233l-.007.176c0 .237.044.471.13.692l1.398 3.59.066.15A1.998 1.998 0 0 0 8.892 12ZM7 15.5a1 1 0 1 1 2 0 1 1 0 0 1-2 0Zm9-1a1 1 0 1 1 0 2 1 1 0 0 1 0-2Zm1.793 5.793a1 1 0 0 0-.707-.293H6.914a1 1 0 0 0-.707.293l-.853.853a.5.5 0 0 0 .353.854h12.586a.5.5 0 0 0 .353-.854l-.853-.853Z"/></g><defs><clipPath id="clip0_24294_2227"><path d="M0 0h24v24H0z"/></clipPath></defs></svg>